<svg width="527" height="527" viewBox="0 0 527 527" fill="none" xmlns="http://www.w3.org/2000/svg">
<circle cx="262.115" cy="262.115" r="135.5" fill="#FFFEFE"/>
<path d="M392.522 308.747C382.733 336.658 364.158 360.642 339.583 377.101C315.008 393.56 285.758 401.607 256.222 400.034C226.687 398.461 198.457 387.353 175.769 368.377C153.081 349.401 137.158 323.579 130.389 294.786C123.62 265.994 126.37 235.782 138.226 208.685C150.083 181.587 170.406 159.065 196.147 144.497C221.888 129.928 251.659 124.1 280.994 127.885C310.328 131.67 337.644 144.866 358.844 165.492" stroke="#C0C0C0" stroke-width="7"/>
<path d="M363.066 322.401L395.162 303.291L405.468 338.109" stroke="#C0C0C0" stroke-width="7"/>
<path d="M191.17 215.552C191.17 216.991 192.12 218.429 193.994 219.527L241.022 246.914C244.819 249.133 250.977 249.133 254.799 246.914L334.128 201.041C336.051 199.92 337 198.481 337 197.017L336.83 311.442C336.83 312.906 335.88 314.369 333.957 315.466L254.653 361.339C250.831 363.558 244.673 363.558 240.876 361.339L193.824 333.952C191.949 332.854 191 331.416 191 329.977L191.17 215.552Z" fill="url(#paint0_linear_24_3223)"/>
<path d="M194.043 211.528L273.347 165.655C277.169 163.436 283.351 163.461 287.124 165.655L334.152 193.042C337.949 195.262 337.925 198.822 334.103 201.041L254.799 246.914C250.977 249.133 244.819 249.133 241.022 246.914L193.994 219.527C190.221 217.332 190.221 213.747 194.043 211.528Z" fill="#E5ECF8"/>
<path d="M337 197.017L336.83 311.442C336.83 312.906 335.88 314.369 333.957 315.466L334.128 201.041C336.051 199.92 337 198.481 337 197.017Z" fill="#CAD2DD"/>
<path d="M191.17 215.552C191.17 216.991 192.12 218.429 193.994 219.527L193.824 333.952C191.949 332.854 191 331.416 191 329.977L191.17 215.552Z" fill="#94A0B4"/>
<path d="M254.799 246.914L254.629 361.339C250.807 363.558 244.649 363.558 240.851 361.339L241.022 246.914C244.819 249.133 250.977 249.133 254.799 246.914Z" fill="#ADB6C4"/>
<path d="M328.675 211.382L261.663 250.157V325.611L328.675 286.836V211.382Z" fill="#251E28"/>
<path d="M234.79 250.279L199.325 229.77V305.199L234.79 325.733V250.279Z" fill="#1B161E"/>
<path d="M268.674 253.571C268.674 254.157 268.187 254.937 267.603 255.279C267.018 255.62 266.531 255.425 266.531 254.815C266.531 254.206 267.018 253.45 267.603 253.108C268.187 252.767 268.674 252.962 268.674 253.571Z" fill="#9FFFFA"/>
<path d="M279.043 247.572C279.043 248.157 278.556 248.938 277.972 249.279C277.388 249.621 276.901 249.426 276.901 248.816C276.901 248.206 277.388 247.45 277.972 247.109C278.556 246.767 279.043 246.962 279.043 247.572Z" fill="#368781"/>
<path d="M289.437 241.573C289.437 242.158 288.95 242.939 288.366 243.28C287.782 243.621 287.295 243.426 287.295 242.817C287.295 242.207 287.782 241.451 288.366 241.11C288.95 240.768 289.437 240.963 289.437 241.573Z" fill="#368781"/>
<path d="M299.806 235.574C299.806 236.159 299.319 236.939 298.735 237.281C298.151 237.622 297.664 237.427 297.664 236.817C297.664 236.208 298.151 235.452 298.735 235.11C299.319 234.769 299.806 234.964 299.806 235.574Z" fill="#9FFFFA"/>
<path d="M310.176 229.55C310.176 230.135 309.689 230.916 309.105 231.257C308.521 231.599 308.034 231.403 308.034 230.794C308.034 230.184 308.521 229.428 309.105 229.087C309.689 228.745 310.176 228.94 310.176 229.55Z" fill="#368781"/>
<path d="M268.674 262.058C268.674 262.644 268.187 263.424 267.603 263.765C267.018 264.107 266.531 263.912 266.531 263.302C266.531 262.692 267.018 261.936 267.603 261.595C268.187 261.253 268.674 261.449 268.674 262.058Z" fill="#9FFFFA"/>
<path d="M279.043 256.059C279.043 256.644 278.556 257.425 277.972 257.766C277.388 258.108 276.901 257.912 276.901 257.303C276.901 256.693 277.388 255.937 277.972 255.596C278.556 255.254 279.043 255.449 279.043 256.059Z" fill="#368781"/>
<path d="M289.437 250.06C289.437 250.645 288.95 251.425 288.366 251.767C287.782 252.108 287.295 251.913 287.295 251.303C287.295 250.694 287.782 249.938 288.366 249.596C288.95 249.255 289.437 249.45 289.437 250.06Z" fill="#368781"/>
<path d="M299.806 244.06C299.806 244.646 299.319 245.426 298.735 245.768C298.151 246.109 297.664 245.914 297.664 245.304C297.664 244.695 298.151 243.939 298.735 243.597C299.319 243.256 299.806 243.451 299.806 244.06Z" fill="#9FFFFA"/>
<path d="M310.176 238.061C310.176 238.646 309.689 239.427 309.105 239.768C308.521 240.11 308.034 239.915 308.034 239.305C308.034 238.695 308.521 237.939 309.105 237.598C309.689 237.256 310.176 237.452 310.176 238.061Z" fill="#9FFFFA"/>
<path d="M268.674 270.545C268.674 271.13 268.187 271.911 267.603 272.252C267.018 272.594 266.531 272.398 266.531 271.789C266.531 271.179 267.018 270.423 267.603 270.082C268.187 269.74 268.674 269.935 268.674 270.545Z" fill="#368781"/>
<path d="M279.043 264.546C279.043 265.131 278.556 265.911 277.972 266.253C277.388 266.594 276.901 266.399 276.901 265.79C276.901 265.18 277.388 264.424 277.972 264.082C278.556 263.741 279.043 263.936 279.043 264.546Z" fill="#9FFFFA"/>
<path d="M289.437 258.546C289.437 259.132 288.95 259.912 288.366 260.254C287.782 260.595 287.295 260.4 287.295 259.79C287.295 259.181 287.782 258.425 288.366 258.083C288.95 257.742 289.437 257.937 289.437 258.546Z" fill="#9FFFFA"/>
<path d="M299.806 252.547C299.806 253.133 299.319 253.913 298.735 254.254C298.151 254.596 297.664 254.401 297.664 253.791C297.664 253.181 298.151 252.425 298.735 252.084C299.319 251.742 299.806 251.938 299.806 252.547Z" fill="#368781"/>
<path d="M310.176 246.548C310.176 247.133 309.689 247.914 309.105 248.255C308.521 248.596 308.034 248.401 308.034 247.792C308.034 247.182 308.521 246.426 309.105 246.085C309.689 245.743 310.176 245.938 310.176 246.548Z" fill="#9FFFFA"/>
<path d="M268.674 279.056C268.674 279.641 268.187 280.422 267.603 280.763C267.018 281.105 266.531 280.91 266.531 280.3C266.531 279.69 267.018 278.934 267.603 278.593C268.187 278.251 268.674 278.446 268.674 279.056Z" fill="#9FFFFA"/>
<path d="M279.043 273.033C279.043 273.618 278.556 274.398 277.972 274.74C277.388 275.081 276.901 274.886 276.901 274.276C276.901 273.667 277.388 272.911 277.972 272.569C278.556 272.228 279.043 272.423 279.043 273.033Z" fill="#9FFFFA"/>
<path d="M289.437 267.033C289.437 267.619 288.95 268.399 288.366 268.74C287.782 269.082 287.295 268.887 287.295 268.277C287.295 267.667 287.782 266.911 288.366 266.57C288.95 266.228 289.437 266.424 289.437 267.033Z" fill="#9FFFFA"/>
<path d="M299.806 261.034C299.806 261.619 299.319 262.4 298.735 262.741C298.151 263.083 297.664 262.887 297.664 262.278C297.664 261.668 298.151 260.912 298.735 260.571C299.319 260.229 299.806 260.424 299.806 261.034Z" fill="#9FFFFA"/>
<path d="M310.176 255.035C310.176 255.62 309.689 256.4 309.105 256.742C308.521 257.083 308.034 256.888 308.034 256.278C308.034 255.669 308.521 254.913 309.105 254.571C309.689 254.23 310.176 254.425 310.176 255.035Z" fill="#368781"/>
<path d="M268.674 287.543C268.674 288.128 268.187 288.909 267.603 289.25C267.018 289.591 266.531 289.396 266.531 288.787C266.531 288.177 267.018 287.421 267.603 287.08C268.187 286.738 268.674 286.933 268.674 287.543Z" fill="#368781"/>
<path d="M279.043 281.544C279.043 282.129 278.556 282.909 277.972 283.251C277.388 283.592 276.901 283.397 276.901 282.787C276.901 282.178 277.388 281.422 277.972 281.08C278.556 280.739 279.043 280.934 279.043 281.544Z" fill="#368781"/>
<path d="M289.437 275.544C289.437 276.13 288.95 276.91 288.366 277.252C287.782 277.593 287.295 277.398 287.295 276.788C287.295 276.178 287.782 275.422 288.366 275.081C288.95 274.74 289.437 274.935 289.437 275.544Z" fill="#9FFFFA"/>
<path d="M299.806 269.545C299.806 270.13 299.319 270.911 298.735 271.252C298.151 271.594 297.664 271.399 297.664 270.789C297.664 270.179 298.151 269.423 298.735 269.082C299.319 268.74 299.806 268.935 299.806 269.545Z" fill="#368781"/>
<path d="M310.176 263.521C310.176 264.107 309.689 264.887 309.105 265.229C308.521 265.57 308.034 265.375 308.034 264.765C308.034 264.156 308.521 263.4 309.105 263.058C309.689 262.717 310.176 262.912 310.176 263.521Z" fill="#9FFFFA"/>
<path d="M268.674 296.03C268.674 296.615 268.187 297.395 267.603 297.737C267.018 298.078 266.531 297.883 266.531 297.273C266.531 296.664 267.018 295.908 267.603 295.566C268.187 295.225 268.674 295.42 268.674 296.03Z" fill="#9FFFFA"/>
<path d="M279.043 290.03C279.043 290.616 278.556 291.396 277.972 291.738C277.388 292.079 276.901 291.884 276.901 291.274C276.901 290.664 277.388 289.908 277.972 289.567C278.556 289.226 279.043 289.421 279.043 290.03Z" fill="#9FFFFA"/>
<path d="M289.437 284.031C289.437 284.616 288.95 285.397 288.366 285.738C287.782 286.08 287.295 285.885 287.295 285.275C287.295 284.665 287.782 283.909 288.366 283.568C288.95 283.226 289.437 283.421 289.437 284.031Z" fill="#9FFFFA"/>
<path d="M299.806 278.032C299.806 278.617 299.319 279.398 298.735 279.739C298.151 280.08 297.664 279.885 297.664 279.276C297.664 278.666 298.151 277.91 298.735 277.569C299.319 277.227 299.806 277.422 299.806 278.032Z" fill="#9FFFFA"/>
<path d="M310.176 272.033C310.176 272.618 309.689 273.398 309.105 273.74C308.521 274.081 308.034 273.886 308.034 273.276C308.034 272.667 308.521 271.911 309.105 271.569C309.689 271.228 310.176 271.423 310.176 272.033Z" fill="#9FFFFA"/>
<path d="M268.674 304.516C268.674 305.102 268.187 305.882 267.603 306.224C267.018 306.565 266.531 306.37 266.531 305.76C266.531 305.151 267.018 304.395 267.603 304.053C268.187 303.712 268.674 303.907 268.674 304.516Z" fill="#368781"/>
<path d="M279.043 298.517C279.043 299.102 278.556 299.883 277.972 300.224C277.388 300.566 276.901 300.371 276.901 299.761C276.901 299.151 277.388 298.395 277.972 298.054C278.556 297.712 279.043 297.908 279.043 298.517Z" fill="#368781"/>
<path d="M289.437 292.518C289.437 293.103 288.95 293.884 288.366 294.225C287.782 294.566 287.295 294.371 287.295 293.762C287.295 293.152 287.782 292.396 288.366 292.055C288.95 291.713 289.437 291.908 289.437 292.518Z" fill="#368781"/>
<path d="M299.806 286.519C299.806 287.104 299.319 287.884 298.735 288.226C298.151 288.567 297.664 288.372 297.664 287.762C297.664 287.153 298.151 286.397 298.735 286.055C299.319 285.714 299.806 285.909 299.806 286.519Z" fill="#9FFFFA"/>
<path d="M310.176 280.519C310.176 281.105 309.689 281.885 309.105 282.226C308.521 282.568 308.034 282.373 308.034 281.763C308.034 281.153 308.521 280.397 309.105 280.056C309.689 279.715 310.176 279.91 310.176 280.519Z" fill="#368781"/>
<path d="M268.674 313.028C268.674 313.613 268.187 314.393 267.603 314.735C267.018 315.076 266.531 314.881 266.531 314.271C266.531 313.662 267.018 312.906 267.603 312.564C268.187 312.223 268.674 312.418 268.674 313.028Z" fill="#368781"/>
<path d="M279.043 307.004C279.043 307.589 278.556 308.37 277.972 308.711C277.388 309.052 276.901 308.857 276.901 308.248C276.901 307.638 277.388 306.882 277.972 306.541C278.556 306.199 279.043 306.394 279.043 307.004Z" fill="#9FFFFA"/>
<path d="M289.437 301.005C289.437 301.59 288.95 302.37 288.366 302.712C287.782 303.053 287.295 302.858 287.295 302.248C287.295 301.639 287.782 300.883 288.366 300.541C288.95 300.2 289.437 300.395 289.437 301.005Z" fill="#9FFFFA"/>
<path d="M299.806 295.005C299.806 295.591 299.319 296.371 298.735 296.713C298.151 297.054 297.664 296.859 297.664 296.249C297.664 295.639 298.151 294.883 298.735 294.542C299.319 294.201 299.806 294.396 299.806 295.005Z" fill="#368781"/>
<path d="M310.176 289.006C310.176 289.591 309.689 290.372 309.105 290.713C308.521 291.055 308.034 290.86 308.034 290.25C308.034 289.64 308.521 288.884 309.105 288.543C309.689 288.201 310.176 288.396 310.176 289.006Z" fill="#9FFFFA"/>
<path d="M225.492 252.035C225.492 252.62 225.979 253.401 226.563 253.742C227.147 254.084 227.634 253.889 227.634 253.279C227.634 252.669 227.147 251.913 226.563 251.572C225.979 251.23 225.492 251.425 225.492 252.035Z" fill="#368781"/>
<path d="M215.122 246.036C215.122 246.621 215.609 247.401 216.193 247.743C216.778 248.084 217.264 247.889 217.264 247.28C217.264 246.67 216.778 245.914 216.193 245.572C215.609 245.231 215.122 245.426 215.122 246.036Z" fill="#9FFFFA"/>
<path d="M204.729 240.037C204.729 240.622 205.215 241.402 205.8 241.744C206.384 242.085 206.871 241.89 206.871 241.28C206.871 240.671 206.384 239.915 205.8 239.573C205.215 239.232 204.729 239.427 204.729 240.037Z" fill="#368781"/>
<path d="M225.492 260.522C225.492 261.107 225.979 261.888 226.563 262.229C227.147 262.57 227.634 262.375 227.634 261.766C227.634 261.156 227.147 260.4 226.563 260.058C225.979 259.717 225.492 259.912 225.492 260.522Z" fill="#368781"/>
<path d="M215.122 254.523C215.122 255.108 215.609 255.888 216.193 256.23C216.778 256.571 217.264 256.376 217.264 255.766C217.264 255.157 216.778 254.401 216.193 254.059C215.609 253.718 215.122 253.913 215.122 254.523Z" fill="#9FFFFA"/>
<path d="M204.729 248.523C204.729 249.109 205.215 249.889 205.8 250.23C206.384 250.572 206.871 250.377 206.871 249.767C206.871 249.157 206.384 248.401 205.8 248.06C205.215 247.719 204.729 247.914 204.729 248.523Z" fill="#9FFFFA"/>
<path d="M225.492 269.033C225.492 269.618 225.979 270.399 226.563 270.74C227.147 271.082 227.634 270.886 227.634 270.277C227.634 269.667 227.147 268.911 226.563 268.57C225.979 268.228 225.492 268.423 225.492 269.033Z" fill="#9FFFFA"/>
<path d="M215.122 263.034C215.122 263.619 215.609 264.399 216.193 264.741C216.778 265.082 217.264 264.887 217.264 264.277C217.264 263.668 216.778 262.912 216.193 262.57C215.609 262.229 215.122 262.424 215.122 263.034Z" fill="#368781"/>
<path d="M204.729 257.01C204.729 257.595 205.215 258.376 205.8 258.717C206.384 259.059 206.871 258.863 206.871 258.254C206.871 257.644 206.384 256.888 205.8 256.547C205.215 256.205 204.729 256.4 204.729 257.01Z" fill="#9FFFFA"/>
<path d="M225.492 277.52C225.492 278.105 225.979 278.885 226.563 279.227C227.147 279.568 227.634 279.373 227.634 278.764C227.634 278.154 227.147 277.398 226.563 277.056C225.979 276.715 225.492 276.91 225.492 277.52Z" fill="#9FFFFA"/>
<path d="M215.122 271.52C215.122 272.106 215.609 272.886 216.193 273.228C216.778 273.569 217.264 273.374 217.264 272.764C217.264 272.155 216.778 271.399 216.193 271.057C215.609 270.716 215.122 270.911 215.122 271.52Z" fill="#9FFFFA"/>
<path d="M204.729 265.521C204.729 266.107 205.215 266.887 205.8 267.228C206.384 267.57 206.871 267.375 206.871 266.765C206.871 266.155 206.384 265.399 205.8 265.058C205.215 264.716 204.729 264.912 204.729 265.521Z" fill="#368781"/>
<path d="M225.492 286.007C225.492 286.592 225.979 287.372 226.563 287.714C227.147 288.055 227.634 287.86 227.634 287.25C227.634 286.641 227.147 285.885 226.563 285.543C225.979 285.202 225.492 285.397 225.492 286.007Z" fill="#9FFFFA"/>
<path d="M215.122 280.007C215.122 280.593 215.609 281.373 216.193 281.714C216.778 282.056 217.264 281.861 217.264 281.251C217.264 280.641 216.778 279.885 216.193 279.544C215.609 279.202 215.122 279.398 215.122 280.007Z" fill="#368781"/>
<path d="M204.729 274.008C204.729 274.593 205.215 275.374 205.8 275.715C206.384 276.057 206.871 275.861 206.871 275.252C206.871 274.642 206.384 273.886 205.8 273.545C205.215 273.203 204.729 273.398 204.729 274.008Z" fill="#9FFFFA"/>
<path d="M225.492 294.493C225.492 295.079 225.979 295.859 226.563 296.2C227.147 296.542 227.634 296.347 227.634 295.737C227.634 295.127 227.147 294.371 226.563 294.03C225.979 293.688 225.492 293.884 225.492 294.493Z" fill="#9FFFFA"/>
<path d="M215.122 288.494C215.122 289.079 215.609 289.86 216.193 290.201C216.778 290.543 217.264 290.347 217.264 289.738C217.264 289.128 216.778 288.372 216.193 288.031C215.609 287.689 215.122 287.884 215.122 288.494Z" fill="#9FFFFA"/>
<path d="M204.729 282.495C204.729 283.08 205.215 283.86 205.8 284.202C206.384 284.543 206.871 284.348 206.871 283.738C206.871 283.129 206.384 282.373 205.8 282.031C205.215 281.69 204.729 281.885 204.729 282.495Z" fill="#9FFFFA"/>
<path d="M225.492 303.004C225.492 303.59 225.979 304.37 226.563 304.712C227.147 305.053 227.634 304.858 227.634 304.248C227.634 303.638 227.147 302.882 226.563 302.541C225.979 302.2 225.492 302.395 225.492 303.004Z" fill="#368781"/>
<path d="M215.122 297.005C215.122 297.59 215.609 298.371 216.193 298.712C216.778 299.054 217.264 298.859 217.264 298.249C217.264 297.639 216.778 296.883 216.193 296.542C215.609 296.2 215.122 296.395 215.122 297.005Z" fill="#9FFFFA"/>
<path d="M204.729 290.982C204.729 291.567 205.215 292.347 205.8 292.689C206.384 293.03 206.871 292.835 206.871 292.225C206.871 291.616 206.384 290.86 205.8 290.518C205.215 290.177 204.729 290.372 204.729 290.982Z" fill="#368781"/>
<path d="M225.492 311.491C225.492 312.076 225.979 312.857 226.563 313.198C227.147 313.54 227.634 313.345 227.634 312.735C227.634 312.125 227.147 311.369 226.563 311.028C225.979 310.686 225.492 310.882 225.492 311.491Z" fill="#9FFFFA"/>
<path d="M215.122 305.492C215.122 306.077 215.609 306.858 216.193 307.199C216.778 307.54 217.264 307.345 217.264 306.736C217.264 306.126 216.778 305.37 216.193 305.029C215.609 304.687 215.122 304.882 215.122 305.492Z" fill="#368781"/>
<path d="M204.729 299.493C204.729 300.078 205.215 300.858 205.8 301.2C206.384 301.541 206.871 301.346 206.871 300.736C206.871 300.127 206.384 299.371 205.8 299.029C205.215 298.688 204.729 298.883 204.729 299.493Z" fill="#9FFFFA"/>
<path d="M328.675 197.017L319.985 202.041L311.295 197.017L319.985 191.969L328.675 197.017Z" fill="#C03435"/>
<path d="M256.552 238.72L247.862 243.768L239.172 238.72L247.862 233.696L256.552 238.72Z" fill="#C03435"/>
<path d="M287.636 173.264L278.946 178.288L270.256 173.264L278.946 168.24L287.636 173.264Z" fill="#C03435"/>
<path d="M215.512 214.991L206.822 220.015L198.132 214.991L206.822 209.943L215.512 214.991Z" fill="#C03435"/>
<path d="M268.601 337.439L261.809 333.513V357.193L268.601 361.119V337.439Z" fill="#A2ACBD"/>
<path d="M335.491 322.441L268.601 361.119V337.439L335.491 298.761V322.441Z" fill="#BBC2CD"/>
<path d="M273.469 340.268L330.623 307.223V319.612L273.469 352.681V340.268Z" fill="#251E28"/>
<path d="M268.601 337.439L261.809 333.513L328.7 294.835L335.491 298.761L268.601 337.439Z" fill="#E5ECF8"/>
<path d="M317.21 281.227L313.243 278.934V288.665L317.21 290.982V281.227Z" fill="#1B161E"/>
<path d="M330.769 283.153L317.21 290.982V281.227L330.769 273.398V283.153Z" fill="#251E28"/>
<path d="M329.6 277.447L328.797 277.934V274.52L329.6 274.057V277.447Z" fill="#9FFFFA"/>
<path d="M327.361 278.764L326.558 279.227V275.837L327.361 275.349V278.764Z" fill="#368781"/>
<path d="M325.121 280.056L324.294 280.519V277.13L325.121 276.666V280.056Z" fill="#368781"/>
<path d="M317.21 281.227L313.243 278.934L326.777 271.082L330.769 273.398L317.21 281.227Z" fill="#372E3C"/>
<path d="M317.21 264.107L313.243 261.814V271.569L317.21 273.862V264.107Z" fill="#1B161E"/>
<path d="M330.769 266.033L317.21 273.862V264.107L330.769 256.279V266.033Z" fill="#251E28"/>
<path d="M329.6 260.351L328.797 260.814V257.425L329.6 256.961V260.351Z" fill="#9FFFFA"/>
<path d="M327.361 261.644L326.558 262.131V258.717L327.361 258.254V261.644Z" fill="#368781"/>
<path d="M325.121 262.961L324.294 263.424V260.01L325.121 259.546V262.961Z" fill="#368781"/>
<path d="M317.21 264.107L313.243 261.814L326.777 253.986L330.769 256.278L317.21 264.107Z" fill="#372E3C"/>
<path d="M317.21 247.011L313.243 244.719V254.474L317.21 256.766V247.011Z" fill="#1B161E"/>
<path d="M330.769 248.938L317.21 256.766V247.011L330.769 239.183V248.938Z" fill="#251E28"/>
<path d="M329.6 243.256L328.797 243.719V240.305L329.6 239.841V243.256Z" fill="#9FFFFA"/>
<path d="M327.361 244.548L326.558 245.012V241.622L327.361 241.134V244.548Z" fill="#368781"/>
<path d="M325.121 245.841L324.294 246.304V242.914L325.121 242.451V245.841Z" fill="#368781"/>
<path d="M317.21 247.011L313.243 244.719L326.777 236.891L330.769 239.183L317.21 247.011Z" fill="#372E3C"/>
<path d="M317.21 229.916L313.243 227.599V237.354L317.21 239.646V229.916Z" fill="#1B161E"/>
<path d="M330.769 231.818L317.21 239.646V229.916L330.769 222.063V231.818Z" fill="#251E28"/>
<path d="M329.6 226.136L328.797 226.599V223.209L329.6 222.746V226.136Z" fill="#9FFFFA"/>
<path d="M327.361 227.428L326.558 227.916V224.502L327.361 224.039V227.428Z" fill="#368781"/>
<path d="M325.121 228.745L324.294 229.209V225.819L325.121 225.331V228.745Z" fill="#368781"/>
<path d="M317.21 229.916L313.243 227.599L326.777 219.771L330.769 222.063L317.21 229.916Z" fill="#372E3C"/>
<defs>
<linearGradient id="paint0_linear_24_3223" x1="241.898" y1="280.007" x2="254.336" y2="280.007" gradientUnits="userSpaceOnUse">
<stop offset="0.4" stop-color="#A2ACBD"/>
<stop offset="0.58" stop-color="#BBC2CD"/>
</linearGradient>
</defs>
</svg>
