<svg width="385" height="393" viewBox="0 0 385 393" fill="none" xmlns="http://www.w3.org/2000/svg">
<circle cx="196.5" cy="203.5" r="135.5" fill="#FFFEFE"/>
<path d="M129.084 87.2251C154.67 72.3862 184.378 66.244 213.75 69.7199C243.123 73.1958 270.577 86.1024 291.993 106.503C313.409 126.904 327.632 153.7 332.529 182.869C337.425 212.039 332.731 242.01 319.151 268.286C305.571 294.561 283.836 315.725 257.209 328.602C230.581 341.479 200.496 345.374 171.467 339.703C142.438 334.032 116.03 319.101 96.2061 297.151C76.3818 275.2 64.2099 247.412 61.5164 217.958" stroke="#C0C0C0" stroke-width="7"/>
<path d="M163.319 94.7513L126.403 89.0416L140.633 55.6348" stroke="#C0C0C0" stroke-width="7"/>
<g clip-path="url(#clip0_24_1281)">
<path d="M174.486 253.655L156.043 243.061V240.394L174.486 250.987V253.655Z" fill="#94A0B4"/>
<path d="M211.295 232.544L174.486 253.655V250.987L211.295 229.876V232.544Z" fill="#BBC2CD"/>
<path d="M174.486 250.987L156.043 240.394L192.776 219.282L211.295 229.876L174.486 250.987Z" fill="#E5ECF8"/>
<path d="M184.784 291L162.96 278.425V275.757L184.784 288.256V291Z" fill="#94A0B4"/>
<path d="M245.491 256.246L184.784 291V288.256L245.491 253.503V256.246Z" fill="#BBC2CD"/>
<path d="M184.784 288.256L162.96 275.757L223.591 241.003L245.491 253.503L184.784 288.256Z" fill="#E5ECF8"/>
<path d="M263.55 253.045L241.649 240.546V239.936L258.325 247.405L263.55 253.045Z" fill="#94A0B4"/>
<path d="M275 246.491L263.55 253.045L258.325 247.405L269.851 240.851L275 246.491Z" fill="#BBC2CD"/>
<path d="M258.325 247.405L241.649 239.936L253.176 233.382L269.851 240.851L258.325 247.405Z" fill="#E5ECF8"/>
<path d="M173.718 238.641L170.029 236.507V185.824L173.718 187.958V238.641Z" fill="#94A0B4"/>
<path d="M190.086 229.266L173.718 238.641V187.958L190.086 178.584V229.266Z" fill="#BBC2CD"/>
<path d="M173.718 187.958L170.029 185.824L186.397 176.45L190.086 178.584L173.718 187.958Z" fill="#E5ECF8"/>
<path d="M130.07 258.38L123 254.341V174.011L130.07 178.126V258.38Z" fill="#94A0B4"/>
<path d="M243.647 193.369L130.07 258.38V178.126L243.647 113.039V193.369Z" fill="#C03435"/>
<path d="M130.07 178.126L123 174.011L236.577 109L243.647 113.039L130.07 178.126Z" fill="#E5ECF8"/>
</g>
<defs>
<clipPath id="clip0_24_1281">
<rect width="152" height="182" fill="white" transform="translate(123 109)"/>
</clipPath>
</defs>
</svg>
