<svg width="341" height="356" viewBox="0 0 341 356" fill="none" xmlns="http://www.w3.org/2000/svg">
<circle cx="169.5" cy="165.5" r="135.5" fill="#FFFEFE"/>
<path d="M202.853 299.538C174.283 307.194 144.001 305.378 116.55 294.365C89.0995 283.351 65.9601 263.734 50.6035 238.455C35.2469 213.176 28.5013 183.599 31.3787 154.162C34.2561 124.725 46.6013 97.0139 66.5622 75.1872C86.5231 53.3606 113.023 38.5949 142.087 33.1056C171.151 27.6163 201.211 31.6992 227.758 44.7419C254.305 57.7846 275.907 79.0837 289.323 105.444C302.739 131.804 307.245 161.804 302.166 190.942" stroke="#C0C0C0" stroke-width="7"/>
<path d="M171.764 283.347L205.914 298.483L183.467 327.025" stroke="#C0C0C0" stroke-width="7"/>
<path d="M195.446 68.7144L182.106 76.3832V79.7915C182.106 82.1011 180.239 85.0385 177.922 86.3615L155.18 99.4566C152.863 100.78 150.996 99.9947 150.996 97.6851V94.2768L137.656 101.946C135.092 103.425 133 106.699 133 109.278V246.799C133 249.355 135.092 250.252 137.656 248.772L195.446 215.519C198.01 214.039 200.102 210.765 200.102 208.186V70.6877C200.102 68.1314 198.01 67.2345 195.446 68.7144Z" fill="#F5F9FF" stroke="#4D4D4D" stroke-width="2" stroke-miterlimit="10"/>
<path opacity="0.5" d="M176.595 197.76L133 222.851V190.113L176.595 165.022C179.519 163.34 181.904 164.327 181.904 167.264V189.418C181.904 192.333 179.519 196.078 176.595 197.76ZM200.102 190.113L167.035 209.151C164.11 210.832 161.726 214.577 161.726 217.492V224.421C161.726 227.336 164.11 228.345 167.035 226.663L200.102 207.626V190.113ZM133 119.054V136.567L176.595 111.475C179.519 109.794 181.904 106.049 181.904 103.134V96.2052C181.904 93.2902 179.519 92.2811 176.595 93.9629L133 119.054ZM156.08 135.625V142.554C156.08 145.469 158.464 146.478 161.389 144.796L200.102 122.508V104.995L161.389 127.284C158.464 128.965 156.08 132.71 156.08 135.625ZM177 147.891V154.819C177 157.734 179.384 158.743 182.309 157.062L200.125 146.814V129.279L182.309 139.527C179.384 141.208 177 144.953 177 147.868V147.891Z" fill="#BBC2CD"/>
<path d="M213.442 127.889L172.726 151.321C169.802 153.003 167.417 152.016 167.417 149.079V142.15C167.417 139.235 169.802 135.491 172.726 133.809L213.442 110.377C216.366 108.695 218.751 109.682 218.751 112.619V119.548C218.751 122.463 216.366 126.207 213.442 127.889Z" fill="#707070"/>
<path d="M187.932 118.023L142.38 144.236C139.456 145.917 137.072 144.931 137.072 141.993V135.065C137.072 132.15 139.456 128.405 142.38 126.723L187.932 100.51C190.857 98.8287 193.241 99.8154 193.241 102.753V109.682C193.241 112.597 190.857 116.341 187.932 118.023Z" fill="#C03435"/>
<path d="M187.932 204.285L142.38 230.497C139.456 232.179 137.072 231.193 137.072 228.255V206.101C137.072 203.186 139.456 199.441 142.38 197.76L187.932 171.547C190.857 169.865 193.241 170.852 193.241 173.789V195.943C193.241 198.858 190.857 202.603 187.932 204.285Z" fill="#C03435"/>
<path d="M213.442 152.218L193.646 163.609C190.722 165.291 188.337 164.304 188.337 161.367V154.438C188.337 151.523 190.722 147.778 193.646 146.097L213.442 134.706C216.366 133.024 218.75 134.011 218.75 136.948V143.877C218.75 146.792 216.366 150.536 213.442 152.218Z" fill="#707070"/>
<path d="M213.442 213.007L178.372 233.188C175.448 234.87 173.063 233.883 173.063 230.946V224.017C173.063 221.102 175.448 217.357 178.372 215.676L213.442 195.495C216.366 193.813 218.75 194.8 218.75 197.737V204.666C218.75 207.581 216.366 211.326 213.442 213.007Z" fill="#707070"/>
<path d="M210.202 120.579C211.53 119.817 212.609 118.135 212.609 116.812C212.609 115.489 211.53 115.041 210.202 115.803C208.875 116.565 207.795 118.247 207.795 119.57C207.795 120.893 208.875 121.342 210.202 120.579Z" fill="#F5F9FF"/>
<path d="M210.202 121.566C207.615 123.068 205.501 126.028 205.501 128.181L214.904 122.777C214.904 120.624 212.789 120.086 210.202 121.588V121.566Z" fill="#F5F9FF"/>
<path d="M210.202 205.922C211.53 205.159 212.609 203.478 212.609 202.155C212.609 200.832 211.53 200.383 210.202 201.146C208.875 201.908 207.795 203.59 207.795 204.913C207.795 206.236 208.875 206.684 210.202 205.922Z" fill="#F5F9FF"/>
<path d="M210.202 206.886C207.615 208.388 205.501 211.348 205.501 213.501L214.904 208.097C214.904 205.944 212.789 205.406 210.202 206.908V206.886Z" fill="#F5F9FF"/>
<path d="M148.207 131.454V130.333L147.217 130.759C147.127 130.423 146.969 130.131 146.767 129.93L147.352 128.764L146.542 128.427L145.732 129.504C145.395 129.504 145.035 129.526 144.63 129.683L144.472 128.786L143.348 129.436L143.19 130.513C142.785 130.827 142.425 131.208 142.088 131.611L141.278 131.499L140.491 132.755L141.076 133.226C140.873 133.674 140.693 134.145 140.626 134.594L139.636 135.334V136.455L140.626 136.029C140.716 136.365 140.873 136.657 141.076 136.858L140.491 138.024L141.278 138.361L142.088 137.284C142.425 137.284 142.785 137.262 143.19 137.105L143.348 138.002L144.472 137.352L144.63 136.275C145.035 135.961 145.395 135.58 145.732 135.177L146.542 135.289L147.352 134.033L146.767 133.562C146.969 133.114 147.149 132.643 147.217 132.194L148.207 131.454ZM143.888 134.751C143.123 135.199 142.493 134.93 142.493 134.168C142.493 133.405 143.123 132.419 143.888 131.97C144.652 131.522 145.282 131.791 145.282 132.553C145.282 133.315 144.652 134.302 143.888 134.751Z" fill="#F5F9FF"/>
<path d="M153.2 132.598V131.723L152.436 132.037C152.368 131.768 152.256 131.544 152.076 131.387L152.548 130.49L151.941 130.221L151.288 131.051C151.041 131.051 150.748 131.051 150.434 131.185L150.321 130.468L149.444 130.961L149.309 131.813C148.994 132.06 148.701 132.351 148.454 132.665L147.824 132.553L147.194 133.54L147.644 133.921C147.464 134.28 147.352 134.638 147.284 134.975L146.497 135.535V136.41L147.262 136.096C147.329 136.365 147.442 136.589 147.622 136.746L147.149 137.643L147.757 137.912L148.409 137.083C148.656 137.083 148.949 137.083 149.264 136.948L149.376 137.666L150.254 137.172L150.389 136.32C150.703 136.074 150.996 135.782 151.243 135.468L151.873 135.58L152.503 134.594L152.053 134.212C152.233 133.854 152.346 133.495 152.413 133.159L153.2 132.598ZM149.826 135.939C148.791 136.522 147.937 136.163 147.959 135.109C147.959 134.055 148.814 132.733 149.871 132.15C150.928 131.567 151.761 131.925 151.738 132.979C151.738 134.033 150.883 135.356 149.826 135.939Z" fill="#F5F9FF"/>
<path d="M155.315 126.768V126.163L154.775 126.387C154.73 126.207 154.64 126.05 154.528 125.938L154.865 125.31L154.438 125.131L153.988 125.714C153.808 125.714 153.605 125.714 153.403 125.804L153.313 125.31L152.705 125.647L152.616 126.23C152.391 126.409 152.188 126.589 152.008 126.813L151.558 126.746L151.131 127.418L151.446 127.687C151.333 127.934 151.243 128.181 151.198 128.427L150.658 128.831V129.436L151.198 129.212C151.243 129.391 151.333 129.548 151.446 129.661L151.108 130.288L151.536 130.468L151.986 129.885C152.166 129.885 152.368 129.885 152.571 129.795L152.66 130.288L153.268 129.952L153.358 129.369C153.583 129.19 153.785 129.01 153.965 128.786L154.415 128.853L154.842 128.181L154.528 127.912C154.64 127.665 154.73 127.418 154.775 127.172L155.315 126.768ZM152.975 128.338C152.66 128.517 152.413 128.405 152.413 128.091C152.413 127.777 152.66 127.396 152.975 127.216C153.29 127.037 153.538 127.149 153.538 127.463C153.538 127.777 153.29 128.158 152.975 128.338Z" fill="#F5F9FF"/>
<path d="M148.207 203.276V202.155L147.217 202.581C147.127 202.244 146.969 201.953 146.767 201.751L147.352 200.585L146.542 200.249L145.732 201.325C145.395 201.325 145.035 201.347 144.63 201.504L144.472 200.607L143.348 201.258L143.19 202.334C142.785 202.648 142.425 203.029 142.088 203.433L141.278 203.321L140.491 204.576L141.076 205.047C140.873 205.496 140.693 205.966 140.626 206.415L139.636 207.155V208.276L140.626 207.85C140.716 208.186 140.873 208.478 141.076 208.68L140.491 209.846L141.278 210.182L142.088 209.106C142.425 209.106 142.785 209.083 143.19 208.926L143.348 209.823L144.472 209.173L144.63 208.097C145.035 207.783 145.395 207.402 145.732 206.998L146.542 207.11L147.352 205.854L146.767 205.383C146.969 204.935 147.149 204.464 147.217 204.016L148.207 203.276ZM143.888 206.572C143.123 207.02 142.493 206.751 142.493 205.989C142.493 205.227 143.123 204.24 143.888 203.791C144.652 203.343 145.282 203.612 145.282 204.374C145.282 205.137 144.652 206.123 143.888 206.572Z" fill="#F5F9FF"/>
<path d="M153.2 204.397V203.522L152.436 203.836C152.368 203.567 152.256 203.343 152.076 203.186L152.548 202.289L151.941 202.02L151.288 202.85C151.041 202.85 150.748 202.85 150.434 202.984L150.321 202.267L149.444 202.76L149.309 203.612C148.994 203.859 148.701 204.15 148.454 204.464L147.824 204.352L147.194 205.339L147.644 205.72C147.464 206.079 147.352 206.437 147.284 206.774L146.497 207.334V208.209L147.262 207.895C147.329 208.164 147.442 208.388 147.622 208.545L147.149 209.442L147.757 209.711L148.409 208.882C148.656 208.882 148.949 208.882 149.264 208.747L149.376 209.464L150.254 208.971L150.389 208.119C150.703 207.872 150.996 207.581 151.243 207.267L151.873 207.379L152.503 206.393L152.053 206.011C152.233 205.653 152.346 205.294 152.413 204.957L153.2 204.397ZM149.826 207.76C148.791 208.343 147.937 207.985 147.959 206.931C147.959 205.877 148.814 204.554 149.871 203.971C150.928 203.388 151.761 203.747 151.738 204.8C151.738 205.854 150.883 207.177 149.826 207.76Z" fill="#F5F9FF"/>
<path d="M155.315 198.589V197.984L154.775 198.208C154.73 198.029 154.64 197.872 154.528 197.76L154.865 197.132L154.438 196.952L153.988 197.535C153.808 197.535 153.605 197.535 153.403 197.625L153.313 197.132L152.705 197.468L152.616 198.051C152.391 198.231 152.188 198.41 152.008 198.634L151.558 198.567L151.131 199.24L151.446 199.509C151.333 199.755 151.243 200.002 151.198 200.249L150.658 200.652V201.258L151.198 201.033C151.243 201.213 151.333 201.37 151.446 201.482L151.108 202.11L151.536 202.289L151.986 201.706C152.166 201.706 152.368 201.706 152.571 201.616L152.66 202.11L153.268 201.773L153.358 201.19C153.583 201.011 153.785 200.832 153.965 200.607L154.415 200.675L154.842 200.002L154.528 199.733C154.64 199.486 154.73 199.24 154.775 198.993L155.315 198.589ZM152.975 200.159C152.66 200.338 152.413 200.226 152.413 199.912C152.413 199.598 152.66 199.217 152.975 199.038C153.29 198.858 153.538 198.97 153.538 199.284C153.538 199.598 153.29 199.98 152.975 200.159Z" fill="#F5F9FF"/>
<path d="M157.767 122.306V123.248L162.716 120.377V119.458L157.767 122.306Z" fill="#F5F9FF"/>
<path d="M166.742 118.068L163.975 119.66V118.74L166.742 117.148V118.068Z" fill="#F5F9FF"/>
<path d="M170.341 116.005L167.979 117.35V116.431L170.341 115.063V116.005Z" fill="#F5F9FF"/>
<path d="M157.902 124.727V125.669L161.051 123.853V122.934L157.902 124.727Z" fill="#F5F9FF"/>
<path d="M164.74 121.745L162.311 123.135V122.216L164.74 120.803V121.745Z" fill="#F5F9FF"/>
<path d="M173.131 116.902L165.978 121.028V120.086L173.131 115.982V116.902Z" fill="#F5F9FF"/>
<path d="M157.767 127.329V128.248L162.716 125.4V124.481L157.767 127.329Z" fill="#F5F9FF"/>
<path d="M166.742 123.091L163.975 124.683V123.763L166.742 122.171V123.091Z" fill="#F5F9FF"/>
<path d="M170.341 121.005L167.979 122.373V121.454L170.341 120.086V121.005Z" fill="#F5F9FF"/>
<path d="M157.902 129.75V130.67L161.051 128.876V127.956L157.902 129.75Z" fill="#F5F9FF"/>
<path d="M164.74 126.746L162.311 128.158V127.239L164.74 125.826V126.746Z" fill="#F5F9FF"/>
<path d="M173.738 121.566L165.978 126.028V125.109L173.738 120.646V121.566Z" fill="#F5F9FF"/>
<path d="M175.898 112.798L171.579 115.287V114.368L175.898 111.879V112.798Z" fill="#F5F9FF"/>
<path d="M179.947 110.466L177.135 112.081V111.161L179.947 109.547V110.466Z" fill="#F5F9FF"/>
<path d="M188.157 105.735L181.184 109.749V108.829L188.157 104.816V105.735Z" fill="#F5F9FF"/>
<path d="M178.282 113.942L174.346 116.207V115.265L178.282 113.023V113.942Z" fill="#F5F9FF"/>
<path d="M182.331 111.61L179.519 113.224V112.305L182.331 110.691V111.61Z" fill="#F5F9FF"/>
<path d="M188.067 108.314L183.568 110.892V109.973L188.067 107.372V108.314Z" fill="#F5F9FF"/>
<path d="M175.898 117.821L171.579 120.31V119.368L175.898 116.902V117.821Z" fill="#F5F9FF"/>
<path d="M179.947 115.489L177.135 117.104V116.184L179.947 114.57V115.489Z" fill="#F5F9FF"/>
<path d="M187.01 111.431L181.184 114.772V113.852L187.01 110.511V111.431Z" fill="#F5F9FF"/>
<path d="M178.282 118.965L174.975 120.871V119.929L178.282 118.023V118.965Z" fill="#F5F9FF"/>
<path d="M182.331 116.633L179.519 118.247V117.305L182.331 115.713V116.633Z" fill="#F5F9FF"/>
<path d="M185.503 114.794L183.568 115.915V114.996L185.503 113.875V114.794Z" fill="#F5F9FF"/>
<path d="M157.767 192.49V193.41L162.716 190.539V189.62L157.767 192.49Z" fill="#F5F9FF"/>
<path d="M166.742 188.23L163.975 189.822V188.903L166.742 187.31V188.23Z" fill="#F5F9FF"/>
<path d="M170.341 186.167L167.979 187.512V186.593L170.341 185.248V186.167Z" fill="#F5F9FF"/>
<path d="M157.902 194.912V195.831L161.051 194.015V193.096L157.902 194.912Z" fill="#F5F9FF"/>
<path d="M164.74 191.907L162.311 193.297V192.378L164.74 190.988V191.907Z" fill="#F5F9FF"/>
<path d="M172.501 187.423L165.978 191.19V190.27L172.501 186.503V187.423Z" fill="#F5F9FF"/>
<path d="M157.767 197.491V198.432L162.716 195.562V194.643L157.767 197.491Z" fill="#F5F9FF"/>
<path d="M166.742 193.253L163.975 194.845V193.925L166.742 192.333V193.253Z" fill="#F5F9FF"/>
<path d="M170.341 191.19L167.979 192.535V191.616L170.341 190.248V191.19Z" fill="#F5F9FF"/>
<path d="M157.902 199.912V200.854L161.051 199.038V198.118L157.902 199.912Z" fill="#F5F9FF"/>
<path d="M164.74 196.93L162.311 198.32V197.401L164.74 195.988V196.93Z" fill="#F5F9FF"/>
<path d="M173.131 192.087L165.978 196.212V195.271L173.131 191.167V192.087Z" fill="#F5F9FF"/>
<path d="M157.767 202.513V203.433L162.716 200.585V199.666L157.767 202.513Z" fill="#F5F9FF"/>
<path d="M166.742 198.275L163.975 199.867V198.948L166.742 197.356V198.275Z" fill="#F5F9FF"/>
<path d="M170.341 196.19L167.979 197.558V196.639L170.341 195.271V196.19Z" fill="#F5F9FF"/>
<path d="M157.902 204.935V205.854L161.051 204.061V203.141L157.902 204.935Z" fill="#F5F9FF"/>
<path d="M164.74 201.93L162.311 203.343V202.424L164.74 201.011V201.93Z" fill="#F5F9FF"/>
<path d="M173.738 196.751L165.978 201.213V200.294L173.738 195.831V196.751Z" fill="#F5F9FF"/>
<path d="M175.898 182.983L171.579 185.449V184.53L175.898 182.041V182.983Z" fill="#F5F9FF"/>
<path d="M179.947 180.651L177.135 182.265V181.324L179.947 179.709V180.651Z" fill="#F5F9FF"/>
<path d="M189.035 175.404L181.184 179.933V178.991L189.035 174.484V175.404Z" fill="#F5F9FF"/>
<path d="M178.282 184.104L173.738 186.727V185.786L178.282 183.185V184.104Z" fill="#F5F9FF"/>
<path d="M182.331 181.772L179.519 183.386V182.467L182.331 180.853V181.772Z" fill="#F5F9FF"/>
<path d="M187.01 179.081L183.568 181.054V180.135L187.01 178.162V179.081Z" fill="#F5F9FF"/>
<path d="M175.898 187.983L171.579 190.472V189.553L175.898 187.064V187.983Z" fill="#F5F9FF"/>
<path d="M179.947 185.651L177.135 187.266V186.346L179.947 184.732V185.651Z" fill="#F5F9FF"/>
<path d="M185.683 182.355L181.184 184.934V184.014L185.683 181.436V182.355Z" fill="#F5F9FF"/>
<path d="M178.282 189.127L174.346 191.391V190.45L178.282 188.207V189.127Z" fill="#F5F9FF"/>
<path d="M182.331 186.795L179.519 188.409V187.49L182.331 185.875V186.795Z" fill="#F5F9FF"/>
<path d="M188.067 183.499L183.568 186.077V185.158L188.067 182.579V183.499Z" fill="#F5F9FF"/>
<path d="M175.898 193.006L171.579 195.495V194.553L175.898 192.087V193.006Z" fill="#F5F9FF"/>
<path d="M179.947 190.674L177.135 192.288V191.369L179.947 189.755V190.674Z" fill="#F5F9FF"/>
<path d="M187.01 186.615L181.184 189.956V189.037L187.01 185.696V186.615Z" fill="#F5F9FF"/>
<path d="M178.282 194.15L174.975 196.056V195.114L178.282 193.208V194.15Z" fill="#F5F9FF"/>
<path d="M182.331 191.818L179.519 193.432V192.513L182.331 190.898V191.818Z" fill="#F5F9FF"/>
<path d="M185.503 190.001L183.568 191.1V190.181L185.503 189.06V190.001Z" fill="#F5F9FF"/>
<path d="M202.442 122.283V123.203L197.493 126.073V125.131L202.442 122.283Z" fill="#F5F9FF"/>
<path d="M193.466 128.382L196.233 126.768V125.849L193.466 127.441V128.382Z" fill="#F5F9FF"/>
<path d="M189.867 130.445L192.229 129.1V128.158L189.867 129.526V130.445Z" fill="#F5F9FF"/>
<path d="M202.307 124.884V125.804L199.157 127.598V126.678L202.307 124.884Z" fill="#F5F9FF"/>
<path d="M195.491 129.728L197.92 128.315V127.396L195.491 128.808V129.728Z" fill="#F5F9FF"/>
<path d="M187.708 134.19L194.231 130.445V129.526L187.708 133.271V134.19Z" fill="#F5F9FF"/>
<path d="M202.442 127.306V128.225L197.493 131.073V130.154L202.442 127.306Z" fill="#F5F9FF"/>
<path d="M193.466 133.383L196.233 131.791V130.871L193.466 132.463V133.383Z" fill="#F5F9FF"/>
<path d="M189.867 135.468L192.229 134.1V133.181L189.867 134.549V135.468Z" fill="#F5F9FF"/>
<path d="M184.333 133.629L188.63 131.163V130.244L184.333 132.71V133.629Z" fill="#F5F9FF"/>
<path d="M180.284 135.961L183.074 134.347V133.428L180.284 135.042V135.961Z" fill="#F5F9FF"/>
<path d="M172.501 140.446L179.024 136.679V135.76L172.501 139.527V140.446Z" fill="#F5F9FF"/>
<path d="M181.926 137.531L186.47 134.908V133.988L181.926 136.589V137.531Z" fill="#F5F9FF"/>
<path d="M177.877 139.863L180.689 138.249V137.307L177.877 138.921V139.863Z" fill="#F5F9FF"/>
<path d="M174.548 141.769L176.64 140.581V139.639L174.548 140.85V141.769Z" fill="#F5F9FF"/>
<path d="M184.333 138.652L188.63 136.186V135.244L184.333 137.733V138.652Z" fill="#F5F9FF"/>
<path d="M180.284 140.984L183.074 139.37V138.45L180.284 140.065V140.984Z" fill="#F5F9FF"/>
<path d="M175.875 143.518L179.025 141.702V140.782L175.875 142.599V143.518Z" fill="#F5F9FF"/>
<path d="M140.468 220.295V221.214L145.417 218.344V217.425L140.468 220.295Z" fill="#F5F9FF"/>
<path d="M149.444 216.035L146.677 217.649V216.707L149.444 215.115V216.035Z" fill="#F5F9FF"/>
<path d="M153.043 213.972L150.681 215.317V214.398L153.043 213.052V213.972Z" fill="#F5F9FF"/>
<path d="M140.603 222.717V223.636L143.753 221.82V220.9L140.603 222.717Z" fill="#F5F9FF"/>
<path d="M147.442 219.712L144.99 221.102V220.183L147.442 218.793V219.712Z" fill="#F5F9FF"/>
<path d="M155.202 215.227L148.679 218.994V218.075L155.202 214.308V215.227Z" fill="#F5F9FF"/>
<path d="M140.468 225.295V226.237L145.417 223.367V222.448L140.468 225.295Z" fill="#F5F9FF"/>
<path d="M149.444 221.057L146.677 222.649V221.73L149.444 220.138V221.057Z" fill="#F5F9FF"/>
<path d="M153.043 218.994L150.681 220.34V219.42L153.043 218.053V218.994Z" fill="#F5F9FF"/>
<path d="M158.599 210.788L154.28 213.254V212.335L158.599 209.846V210.788Z" fill="#F5F9FF"/>
<path d="M162.648 208.456L159.836 210.07V209.128L162.648 207.514V208.456Z" fill="#F5F9FF"/>
<path d="M160.984 211.909L156.44 214.532V213.613L160.984 210.989V211.909Z" fill="#F5F9FF"/>
<path d="M165.033 209.577L162.221 211.191V210.272L165.033 208.657V209.577Z" fill="#F5F9FF"/>
<path d="M169.712 206.886L166.27 208.859V207.94L169.712 205.967V206.886Z" fill="#F5F9FF"/>
<path d="M158.599 215.788L154.28 218.277V217.358L158.599 214.869V215.788Z" fill="#F5F9FF"/>
<path d="M162.648 213.456L159.836 215.07V214.151L162.648 212.537V213.456Z" fill="#F5F9FF"/>
<path d="M168.362 210.16L163.885 212.738V211.819L168.362 209.24V210.16Z" fill="#F5F9FF"/>
<path d="M163.975 206.751V207.693L175.133 201.258V200.338L163.975 206.751Z" fill="#F5F9FF"/>
<path d="M179.16 198.948L176.393 200.54V199.621L179.16 198.006V198.948Z" fill="#F5F9FF"/>
<path d="M182.759 196.863L180.397 198.231V197.311L182.759 195.943V196.863Z" fill="#F5F9FF"/>
<path d="M170.814 205.316V206.236L173.468 204.733V203.791L170.814 205.316Z" fill="#F5F9FF"/>
<path d="M177.158 202.603L174.706 204.016V203.074L177.158 201.684V202.603Z" fill="#F5F9FF"/>
<path d="M184.918 198.141L178.395 201.885V200.966L184.918 197.199V198.141Z" fill="#F5F9FF"/>
<path d="M170.184 208.209V209.128L175.133 206.28V205.339L170.184 208.209Z" fill="#F5F9FF"/>
<path d="M179.16 203.948L176.393 205.563V204.621L179.16 203.029V203.948Z" fill="#F5F9FF"/>
<path d="M182.759 201.885L180.397 203.253V202.312L182.759 200.966V201.885Z" fill="#F5F9FF"/>
<path d="M188.315 193.679L183.996 196.145V195.226L188.315 192.759V193.679Z" fill="#F5F9FF"/>
<path d="M214.611 138.473V139.392L209.64 142.262V141.321L214.611 138.473Z" fill="#F5F9FF"/>
<path d="M205.636 144.572L208.403 142.98V142.038L205.636 143.63V144.572Z" fill="#F5F9FF"/>
<path d="M202.037 146.635L204.399 145.289V144.348L202.037 145.716V146.635Z" fill="#F5F9FF"/>
<path d="M214.454 141.074V141.993L211.327 143.81V142.868L214.454 141.074Z" fill="#F5F9FF"/>
<path d="M207.638 145.917L210.068 144.527V143.585L207.638 144.998V145.917Z" fill="#F5F9FF"/>
<path d="M199.877 150.402L206.401 146.635V145.716L199.877 149.46V150.402Z" fill="#F5F9FF"/>
<path d="M214.611 143.496V144.415L209.64 147.263V146.343L214.611 143.496Z" fill="#F5F9FF"/>
<path d="M205.636 149.572L208.403 147.98V147.061L205.636 148.653V149.572Z" fill="#F5F9FF"/>
<path d="M202.037 151.658L204.399 150.29V149.37L202.037 150.738V151.658Z" fill="#F5F9FF"/>
<path d="M214.454 146.097V147.016L211.327 148.81V147.891L214.454 146.097Z" fill="#F5F9FF"/>
<path d="M207.638 150.94L210.068 149.527V148.608L207.638 150.021V150.94Z" fill="#F5F9FF"/>
<path d="M199.247 155.761L206.401 151.658V150.738L199.247 154.842V155.761Z" fill="#F5F9FF"/>
<path d="M196.481 149.841L200.8 147.352V146.433L196.481 148.9V149.841Z" fill="#F5F9FF"/>
<path d="M192.432 152.173L195.243 150.559V149.617L192.432 151.232V152.173Z" fill="#F5F9FF"/>
<path d="M194.096 153.721L198.64 151.097V150.178L194.096 152.801V153.721Z" fill="#F5F9FF"/>
<path d="M196.481 154.842L200.8 152.375V151.456L196.481 153.922V154.842Z" fill="#F5F9FF"/>
<path d="M202.554 206.168V207.088L197.583 209.958V209.016L202.554 206.168Z" fill="#F5F9FF"/>
<path d="M193.579 212.267L196.346 210.675V209.734L193.579 211.326V212.267Z" fill="#F5F9FF"/>
<path d="M189.957 214.33L192.319 212.985V212.043L189.957 213.411V214.33Z" fill="#F5F9FF"/>
<path d="M202.397 208.769V209.689L199.27 211.505V210.563L202.397 208.769Z" fill="#F5F9FF"/>
<path d="M195.581 213.613L198.01 212.223V211.281L195.581 212.693V213.613Z" fill="#F5F9FF"/>
<path d="M187.82 218.075L194.344 214.33V213.411L187.82 217.156V218.075Z" fill="#F5F9FF"/>
<path d="M202.554 211.191V212.11L197.583 214.958V214.039L202.554 211.191Z" fill="#F5F9FF"/>
<path d="M193.579 217.268L196.346 215.676V214.756L193.579 216.348V217.268Z" fill="#F5F9FF"/>
<path d="M189.957 219.353L192.319 217.985V217.066L189.957 218.434V219.353Z" fill="#F5F9FF"/>
<path d="M202.397 213.792V214.712L199.27 216.505V215.586L202.397 213.792Z" fill="#F5F9FF"/>
<path d="M195.581 218.636L198.01 217.223V216.304L195.581 217.716V218.636Z" fill="#F5F9FF"/>
<path d="M187.19 223.457L194.344 219.353V218.434L187.19 222.537V223.457Z" fill="#F5F9FF"/>
<path d="M184.423 217.537L188.72 215.048V214.129L184.423 216.595V217.537Z" fill="#F5F9FF"/>
<path d="M177.877 221.282L183.186 218.254V217.313L177.877 220.362V221.282Z" fill="#F5F9FF"/>
<path d="M182.039 221.416L186.583 218.793V217.873L182.039 220.497V221.416Z" fill="#F5F9FF"/>
<path d="M177.99 223.748L180.779 222.134V221.192L177.99 222.806V223.748Z" fill="#F5F9FF"/>
<path d="M184.423 222.537L188.72 220.071V219.151L184.423 221.618V222.537Z" fill="#F5F9FF"/>
<path d="M180.374 224.869L183.186 223.255V222.335L180.374 223.95V224.869Z" fill="#F5F9FF"/>
<path d="M182.039 226.439L185.953 224.174V223.255L182.039 225.497V226.439Z" fill="#F5F9FF"/>
</svg>
